<?xml version="1.0" encoding="UTF-8" standalone="no"?>
<svg
   xmlns:dc="http://purl.org/dc/elements/1.1/"
   xmlns:cc="http://creativecommons.org/ns#"
   xmlns:rdf="http://www.w3.org/1999/02/22-rdf-syntax-ns#"
   xmlns:svg="http://www.w3.org/2000/svg"
   xmlns="http://www.w3.org/2000/svg"
   viewBox="0 0 666.66669 800"
   height="800"
   width="666.66669"
   xml:space="preserve"
   id="svg2"
   version="1.1">
  <metadata id="metadata8">
    <rdf:RDF>
      <cc:Work rdf:about="">
        <dc:format>image/svg+xml</dc:format>
        <dc:type rdf:resource="http://purl.org/dc/dcmitype/StillImage" />
      </cc:Work>
    </rdf:RDF>
  </metadata>
  <defs id="defs6" />
  <g transform="matrix(1.3333333,0,0,-1.3333333,0,800)" id="g10">
    <g transform="scale(0.1) translate(-1500, 0)" id="g12">
      <path
         id="path74"
         style="fill:#f57b19;fill-opacity:1;fill-rule:nonzero;stroke:none"
         d="m 1913.28,4544.4 c 0,37 -25.44,63.9 -63.01,63.9 -37.57,0 -63,-26.9 -63,-63.9 0,-37 25.43,-64.2 63,-64.2 37.57,0 63.01,27.2 63.01,64.2 z m -163.58,0 c 0,56.6 41.62,98.2 100.57,98.2 58.95,0 100.57,-41.6 100.57,-98.2 0,-56.7 -41.62,-98.3 -100.57,-98.3 -58.95,0 -100.57,41.6 -100.57,98.3" />
      <path
         id="path76"
         style="fill:#f57b19;fill-opacity:1;fill-rule:nonzero;stroke:none"
         d="m 2093.34,4521.3 c 0,25.1 -17.06,43 -42.2,43 -25.14,0 -41.9,-17.9 -41.9,-43 0,-25.2 16.76,-43.1 41.9,-43.1 25.14,0 42.2,17.9 42.2,43.1 z m -118.49,-1.2 c 0,46.2 31.21,76.3 76.01,76.3 45.37,0 77.15,-31.2 77.15,-76.6 0,-48.8 -36.41,-73.7 -71.09,-73.7 -20.51,0 -37.56,8.7 -47.68,24.6 v -81.8 h -34.39 v 131.2" />
      <path
         id="path78"
         style="fill:#f57b19;fill-opacity:1;fill-rule:nonzero;stroke:none"
         d="m 2155.48,4592.6 h 34.39 v -142.7 h -34.39 z m -5.48,41.4 c 0,13.3 9.54,23.1 22.83,23.1 13.3,0 22.83,-9.8 22.83,-23.1 0,-13.3 -9.53,-22.9 -22.83,-22.9 -13.29,0 -22.83,9.6 -22.83,22.9" />
      <path
         id="path80"
         style="fill:#f57b19;fill-opacity:1;fill-rule:nonzero;stroke:none"
         d="m 2334.09,4536.6 c -5.49,19.1 -21.1,28.6 -39.89,28.6 -19.36,0 -34.38,-9.8 -39.88,-28.6 z m -116.76,-15.3 c 0,43.3 31.79,75.1 76.87,75.1 45.09,0 76.29,-31.8 76.29,-75.1 v -12.2 h -117.03 c 4.62,-20.8 20.51,-31.8 40.74,-31.8 15.32,0 26.59,4.4 33.81,13.6 h 36.71 c -10.7,-27.1 -36.71,-44.8 -70.52,-44.8 -45.08,0 -76.87,31.8 -76.87,75.2" />
      <path
         id="path82"
         style="fill:#f57b19;fill-opacity:1;fill-rule:nonzero;stroke:none"
         d="m 2393.93,4517.2 v 121.7 h 36.99 v -121.7 c 0,-26 13.87,-36.7 32.09,-36.7 18.19,0 32.07,11 32.07,36.7 v 121.7 h 36.99 v -121.7 c 0,-25.7 13.87,-36.7 32.08,-36.7 18.2,0 32.07,10.7 32.07,36.7 v 121.7 h 36.99 v -121.7 c 0,-48.5 -28.6,-71.1 -65.88,-71.1 -23.99,0 -42.78,10.1 -53.76,28.9 -10.97,-18.8 -29.77,-28.9 -53.75,-28.9 -37.28,0 -65.89,22.6 -65.89,71.1" />
      <path
         id="path84"
         style="fill:#f57b19;fill-opacity:1;fill-rule:nonzero;stroke:none"
         d="m 2775.43,4521.3 c 0,25.1 -16.76,43 -41.89,43 -25.15,0 -42.2,-17.9 -42.2,-43 0,-25.2 17.05,-43.1 42.2,-43.1 25.13,0 41.89,17.9 41.89,43.1 z m -118.78,0 c 0,43.3 31.79,75.1 76.89,75.1 45.07,0 76.86,-31.8 76.86,-75.1 0,-43.4 -31.79,-75.2 -76.86,-75.2 -45.1,0 -76.89,31.8 -76.89,75.2" />
      <path
         id="path86"
         style="fill:#f57b19;fill-opacity:1;fill-rule:nonzero;stroke:none"
         d="m 2832.95,4532.8 c 0,43.1 25.43,63.6 62.71,63.6 37.28,0 62.42,-20.5 62.42,-64.2 v -0.8 h -34.1 v 1.4 c 0,23.1 -11.56,31.5 -28.32,31.5 -16.75,0 -28.32,-8.4 -28.32,-31.5 v -82.9 h -34.39 v 82.9" />
      <path
         id="path88"
         style="fill:#f57b19;fill-opacity:1;fill-rule:nonzero;stroke:none"
         d="m 2981.5,4655.1 h 34.39 v -124.9 l 56.65,62.4 h 43.93 l -67.05,-69.9 69.65,-72.8 h -44.79 l -58.39,64.4 v -64.4 h -34.39 v 205.2" />
      <path
         id="path90"
         style="fill:#f57b19;fill-opacity:1;fill-rule:nonzero;stroke:none"
         d="m 3130.37,4492.1 h 34.68 c 0.29,-9.6 8.66,-15.9 25.43,-15.9 17.63,0 25.15,7.2 25.15,15.9 0,11 -12.73,12.4 -28.04,14.4 -21.96,2.9 -54.33,6.7 -54.33,41.6 0,29.2 22.26,48.3 56.65,48.3 34.96,0 56.34,-19.7 57.22,-44.8 h -34.11 c -0.87,8.7 -8.96,14.7 -22.54,14.7 -15.02,0 -22.54,-7.2 -22.54,-15.6 0,-10.9 13.01,-12.7 28.32,-14.7 19.07,-2.6 54.04,-6.4 54.04,-41.9 0,-28.9 -23.41,-48 -59.82,-48 -36.41,0 -59.25,19.4 -60.11,46" />
      <path
         id="path92"
         style="fill:#f57b19;fill-opacity:1;fill-rule:nonzero;stroke:none"
         d="m 2028.92,5305.9 c -105.79,0 -191.86,-86 -191.86,-191.8 0,-105.8 86.07,-191.9 191.86,-191.9 105.79,0 191.86,86.1 191.86,191.9 0,105.8 -86.07,191.8 -191.86,191.8 z m 0,-471 c -153.96,0 -279.22,125.2 -279.22,279.2 0,153.9 125.26,279.2 279.22,279.2 153.97,0 279.22,-125.3 279.22,-279.2 0,-154 -125.25,-279.2 -279.22,-279.2" />
      <path
         id="path94"
         style="fill:#f57b19;fill-opacity:1;fill-rule:nonzero;stroke:none"
         d="m 2971.08,4834.9 c -153.96,0 -279.21,125.2 -279.21,279.2 v 279.2 h 87.35 v -279.2 c 0,-105.8 86.07,-191.9 191.86,-191.9 105.8,0 191.86,86.1 191.86,191.9 v 279.2 h 87.36 v -279.2 c 0,-154 -125.25,-279.2 -279.22,-279.2" />
      <path
         id="path96"
         style="fill:#f57b19;fill-opacity:1;fill-rule:nonzero;stroke:none"
         d="m 2691.87,5114.1 c 0,-105.8 -86.08,-191.9 -191.87,-191.9 -74.79,0 -139.67,43.1 -171.31,105.7 -9.55,-33.2 -24.44,-64.1 -43.7,-91.7 51.25,-61.9 128.6,-101.3 215.01,-101.3 153.96,0 279.22,125.2 279.22,279.2 h -87.35" />
    </g>
  </g>
</svg>