<?xml version="1.0" encoding="UTF-8" standalone="no"?>
<svg
   xmlns:dc="http://purl.org/dc/elements/1.1/"
   xmlns:cc="http://creativecommons.org/ns#"
   xmlns:rdf="http://www.w3.org/1999/02/22-rdf-syntax-ns#"
   xmlns:svg="http://www.w3.org/2000/svg"
   xmlns="http://www.w3.org/2000/svg"
   viewBox="0 0 666.66669 2945.48"
   height="2945.48"
   width="666.66669"
   xml:space="preserve"
   id="svg2"
   version="1.1"><metadata
     id="metadata8"><rdf:RDF><cc:Work
         rdf:about=""><dc:format>image/svg+xml</dc:format><dc:type
           rdf:resource="http://purl.org/dc/dcmitype/StillImage" /></cc:Work></rdf:RDF></metadata><defs
     id="defs6" /><g
     transform="matrix(1.3333333,0,0,-1.3333333,0,2945.48)"
     id="g10"><g
       transform="scale(0.1)"
       id="g12"><path
         id="path14"
         style="fill:#040606;fill-opacity:1;fill-rule:nonzero;stroke:none"
         d="m 0,5700 h 5000 v 5000 H 0 V 5700" /><path
         id="path16"
         style="fill:#040606;fill-opacity:1;fill-rule:nonzero;stroke:none"
         d="M 0,0 H 5000 V 5000 H 0 V 0" /><g
         transform="scale(1.00559)"
         id="g18"><path
           id="path20"
           style="fill:#040606;fill-opacity:1;fill-rule:nonzero;stroke:none"
           d="M 0,11327.8 H 4972.21 V 16300 H 0 v -4972.2" /></g><g
         transform="scale(1.35528)"
         id="g22"><path
           id="path24"
           style="fill:#040606;fill-opacity:1;fill-rule:nonzero;stroke:none"
           d="m 0,12610.8 h 3689.29 v 3689.3 H 0 v -3689.3" /></g><g
         transform="scale(1.18667)"
         id="g26"><path
           id="path28"
           style="fill:#ffffff;fill-opacity:1;fill-rule:nonzero;stroke:none"
           d="m 1612.32,16217.2 c 0,31.2 -21.44,53.8 -53.1,53.8 -31.66,0 -53.09,-22.6 -53.09,-53.8 0,-31.2 21.43,-54.1 53.09,-54.1 31.66,0 53.1,22.9 53.1,54.1 z m -137.85,0 c 0,47.7 35.07,82.8 84.75,82.8 49.67,0 84.75,-35.1 84.75,-82.8 0,-47.7 -35.08,-82.8 -84.75,-82.8 -49.68,0 -84.75,35.1 -84.75,82.8" /></g><g
         transform="scale(1.18383)"
         id="g30"><path
           id="path32"
           style="fill:#ffffff;fill-opacity:1;fill-rule:nonzero;stroke:none"
           d="m 1768.28,16236.5 c 0,21.3 -14.41,36.4 -35.65,36.4 -21.23,0 -35.39,-15.1 -35.39,-36.4 0,-21.2 14.16,-36.4 35.39,-36.4 21.24,0 35.65,15.2 35.65,36.4 z m -100.09,-1 c 0,39.1 26.36,64.5 64.21,64.5 38.32,0 65.17,-26.4 65.17,-64.7 0,-41.3 -30.76,-62.2 -60.05,-62.2 -17.33,0 -31.73,7.3 -40.28,20.7 v -69.1 h -29.05 v 110.8" /></g><g
         transform="scale(1.18755)"
         id="g34"><path
           id="path36"
           style="fill:#ffffff;fill-opacity:1;fill-rule:nonzero;stroke:none"
           d="m 1815.06,16245.7 h 28.96 v -120.2 h -28.96 z m -4.61,34.8 c 0,11.2 8.03,19.5 19.22,19.5 11.2,0 19.23,-8.3 19.23,-19.5 0,-11.2 -8.03,-19.2 -19.23,-19.2 -11.19,0 -19.22,8 -19.22,19.2" /></g><g
         transform="scale(1.18383)"
         id="g38"><path
           id="path40"
           style="fill:#ffffff;fill-opacity:1;fill-rule:nonzero;stroke:none"
           d="m 1971.65,16249.5 c -4.64,16.1 -17.83,24.1 -33.7,24.1 -16.35,0 -29.04,-8.3 -33.69,-24.1 z m -98.63,-13 c 0,36.6 26.85,63.5 64.93,63.5 38.09,0 64.44,-26.9 64.44,-63.5 v -10.2 h -98.85 c 3.9,-17.6 17.32,-26.9 34.41,-26.9 12.94,0 22.46,3.7 28.56,11.5 h 31.01 c -9.04,-23 -31.01,-37.8 -59.57,-37.8 -38.08,0 -64.93,26.8 -64.93,63.4" /></g><g
         transform="scale(1.18643)"
         id="g42"><path
           id="path44"
           style="fill:#ffffff;fill-opacity:1;fill-rule:nonzero;stroke:none"
           d="m 2017.75,16197.4 v 102.6 h 31.18 v -102.6 c 0,-21.9 11.69,-30.9 27.05,-30.9 15.33,0 27.03,9.3 27.03,30.9 v 102.6 h 31.17 v -102.6 c 0,-21.6 11.7,-30.9 27.04,-30.9 15.34,0 27.03,9 27.03,30.9 v 102.6 h 31.18 v -102.6 c 0,-40.9 -24.1,-59.9 -55.52,-59.9 -20.23,0 -36.06,8.6 -45.32,24.4 -9.24,-15.8 -25.09,-24.4 -45.3,-24.4 -31.43,0 -55.54,19 -55.54,59.9" /></g><g
         transform="scale(1.18383)"
         id="g46"><path
           id="path48"
           style="fill:#ffffff;fill-opacity:1;fill-rule:nonzero;stroke:none"
           d="m 2344.45,16236.5 c 0,21.3 -14.15,36.4 -35.38,36.4 -21.25,0 -35.65,-15.1 -35.65,-36.4 0,-21.2 14.4,-36.4 35.65,-36.4 21.23,0 35.38,15.2 35.38,36.4 z m -100.33,0 c 0,36.6 26.85,63.5 64.95,63.5 38.07,0 64.92,-26.9 64.92,-63.5 0,-36.6 -26.85,-63.4 -64.92,-63.4 -38.1,0 -64.95,26.8 -64.95,63.4" /></g><g
         transform="scale(1.18383)"
         id="g50"><path
           id="path52"
           style="fill:#ffffff;fill-opacity:1;fill-rule:nonzero;stroke:none"
           d="m 2393.04,16246.3 c 0,36.4 21.48,53.7 52.97,53.7 31.5,0 52.73,-17.3 52.73,-54.2 v -0.7 h -28.8 v 1.2 c 0,19.5 -9.77,26.6 -23.93,26.6 -14.15,0 -23.92,-7.1 -23.92,-26.6 v -70.1 h -29.05 v 70.1" /></g><g
         transform="scale(1.18743)"
         id="g54"><path
           id="path56"
           style="fill:#ffffff;fill-opacity:1;fill-rule:nonzero;stroke:none"
           d="m 2510.89,16300 h 28.96 v -105.1 l 47.71,52.5 h 37 l -56.47,-58.9 58.66,-61.3 h -37.72 l -49.18,54.3 v -54.3 h -28.96 v 172.8" /></g><g
         transform="scale(1.18383)"
         id="g58"><path
           id="path60"
           style="fill:#ffffff;fill-opacity:1;fill-rule:nonzero;stroke:none"
           d="m 2644.28,16211.9 h 29.29 c 0.25,-8.1 7.32,-13.5 21.48,-13.5 14.89,0 21.25,6.1 21.25,13.5 0,9.2 -10.76,10.5 -23.69,12.2 -18.55,2.4 -45.89,5.6 -45.89,35.1 0,24.7 18.8,40.8 47.85,40.8 29.53,0 47.59,-16.6 48.34,-37.8 h -28.82 c -0.73,7.3 -7.57,12.4 -19.04,12.4 -12.68,0 -19.04,-6.1 -19.04,-13.2 0,-9.3 10.99,-10.7 23.93,-12.4 16.1,-2.2 45.64,-5.4 45.64,-35.4 0,-24.4 -19.77,-40.5 -50.53,-40.5 -30.75,0 -50.05,16.3 -50.77,38.8" /></g><g
         transform="scale(1.23272)"
         id="g62"><path
           id="path64"
           style="fill:#ffffff;fill-opacity:1;fill-rule:nonzero;stroke:none"
           d="m 1645.89,16229.1 c -85.82,0 -155.64,-69.8 -155.64,-155.6 0,-85.8 69.82,-155.6 155.64,-155.6 85.82,0 155.64,69.8 155.64,155.6 0,85.8 -69.82,155.6 -155.64,155.6 z m 0,-382.1 c -124.89,0 -226.51,101.6 -226.51,226.5 0,124.9 101.62,226.5 226.51,226.5 124.9,0 226.51,-101.6 226.51,-226.5 0,-124.9 -101.61,-226.5 -226.51,-226.5" /></g><g
         transform="scale(1.23272)"
         id="g66"><path
           id="path68"
           style="fill:#ffffff;fill-opacity:1;fill-rule:nonzero;stroke:none"
           d="m 2410.19,15847 c -124.9,0 -226.5,101.6 -226.5,226.5 v 226.5 h 70.86 v -226.5 c 0,-85.8 69.82,-155.6 155.64,-155.6 85.82,0 155.64,69.8 155.64,155.6 v 226.5 h 70.86 v -226.5 c 0,-124.9 -101.6,-226.5 -226.5,-226.5" /></g><g
         transform="scale(1.21559)"
         id="g70"><path
           id="path72"
           style="fill:#ffffff;fill-opacity:1;fill-rule:nonzero;stroke:none"
           d="m 2214.46,16300 c 0,-87 -70.81,-157.8 -157.84,-157.8 -61.53,0 -114.9,35.4 -140.93,86.9 -7.86,-27.3 -20.11,-52.7 -35.95,-75.5 42.16,-50.8 105.79,-83.3 176.88,-83.3 126.65,0 229.7,103 229.7,229.7 h -71.86" /></g><path
         id="path74"
         style="fill:#f57b19;fill-opacity:1;fill-rule:nonzero;stroke:none"
         d="m 1913.28,13544.4 c 0,37 -25.44,63.9 -63.01,63.9 -37.57,0 -63,-26.9 -63,-63.9 0,-37 25.43,-64.2 63,-64.2 37.57,0 63.01,27.2 63.01,64.2 z m -163.58,0 c 0,56.6 41.62,98.2 100.57,98.2 58.95,0 100.57,-41.6 100.57,-98.2 0,-56.7 -41.62,-98.3 -100.57,-98.3 -58.95,0 -100.57,41.6 -100.57,98.3" /><path
         id="path76"
         style="fill:#f57b19;fill-opacity:1;fill-rule:nonzero;stroke:none"
         d="m 2093.34,13521.3 c 0,25.1 -17.06,43 -42.2,43 -25.14,0 -41.9,-17.9 -41.9,-43 0,-25.2 16.76,-43.1 41.9,-43.1 25.14,0 42.2,17.9 42.2,43.1 z m -118.49,-1.2 c 0,46.2 31.21,76.3 76.01,76.3 45.37,0 77.15,-31.2 77.15,-76.6 0,-48.8 -36.41,-73.7 -71.09,-73.7 -20.51,0 -37.56,8.7 -47.68,24.6 v -81.8 h -34.39 v 131.2" /><path
         id="path78"
         style="fill:#f57b19;fill-opacity:1;fill-rule:nonzero;stroke:none"
         d="m 2155.48,13592.6 h 34.39 v -142.7 h -34.39 z m -5.48,41.4 c 0,13.3 9.54,23.1 22.83,23.1 13.3,0 22.83,-9.8 22.83,-23.1 0,-13.3 -9.53,-22.9 -22.83,-22.9 -13.29,0 -22.83,9.6 -22.83,22.9" /><path
         id="path80"
         style="fill:#f57b19;fill-opacity:1;fill-rule:nonzero;stroke:none"
         d="m 2334.09,13536.6 c -5.49,19.1 -21.1,28.6 -39.89,28.6 -19.36,0 -34.38,-9.8 -39.88,-28.6 z m -116.76,-15.3 c 0,43.3 31.79,75.1 76.87,75.1 45.09,0 76.29,-31.8 76.29,-75.1 v -12.2 h -117.03 c 4.62,-20.8 20.51,-31.8 40.74,-31.8 15.32,0 26.59,4.4 33.81,13.6 h 36.71 c -10.7,-27.1 -36.71,-44.8 -70.52,-44.8 -45.08,0 -76.87,31.8 -76.87,75.2" /><path
         id="path82"
         style="fill:#f57b19;fill-opacity:1;fill-rule:nonzero;stroke:none"
         d="m 2393.93,13517.2 v 121.7 h 36.99 v -121.7 c 0,-26 13.87,-36.7 32.09,-36.7 18.19,0 32.07,11 32.07,36.7 v 121.7 h 36.99 v -121.7 c 0,-25.7 13.87,-36.7 32.08,-36.7 18.2,0 32.07,10.7 32.07,36.7 v 121.7 h 36.99 v -121.7 c 0,-48.5 -28.6,-71.1 -65.88,-71.1 -23.99,0 -42.78,10.1 -53.76,28.9 -10.97,-18.8 -29.77,-28.9 -53.75,-28.9 -37.28,0 -65.89,22.6 -65.89,71.1" /><path
         id="path84"
         style="fill:#f57b19;fill-opacity:1;fill-rule:nonzero;stroke:none"
         d="m 2775.43,13521.3 c 0,25.1 -16.76,43 -41.89,43 -25.15,0 -42.2,-17.9 -42.2,-43 0,-25.2 17.05,-43.1 42.2,-43.1 25.13,0 41.89,17.9 41.89,43.1 z m -118.78,0 c 0,43.3 31.79,75.1 76.89,75.1 45.07,0 76.86,-31.8 76.86,-75.1 0,-43.4 -31.79,-75.2 -76.86,-75.2 -45.1,0 -76.89,31.8 -76.89,75.2" /><path
         id="path86"
         style="fill:#f57b19;fill-opacity:1;fill-rule:nonzero;stroke:none"
         d="m 2832.95,13532.8 c 0,43.1 25.43,63.6 62.71,63.6 37.28,0 62.42,-20.5 62.42,-64.2 v -0.8 h -34.1 v 1.4 c 0,23.1 -11.56,31.5 -28.32,31.5 -16.75,0 -28.32,-8.4 -28.32,-31.5 v -82.9 h -34.39 v 82.9" /><path
         id="path88"
         style="fill:#f57b19;fill-opacity:1;fill-rule:nonzero;stroke:none"
         d="m 2981.5,13655.1 h 34.39 v -124.9 l 56.65,62.4 h 43.93 l -67.05,-69.9 69.65,-72.8 h -44.79 l -58.39,64.4 v -64.4 h -34.39 v 205.2" /><path
         id="path90"
         style="fill:#f57b19;fill-opacity:1;fill-rule:nonzero;stroke:none"
         d="m 3130.37,13492.1 h 34.68 c 0.29,-9.6 8.66,-15.9 25.43,-15.9 17.63,0 25.15,7.2 25.15,15.9 0,11 -12.73,12.4 -28.04,14.4 -21.96,2.9 -54.33,6.7 -54.33,41.6 0,29.2 22.26,48.3 56.65,48.3 34.96,0 56.34,-19.7 57.22,-44.8 h -34.11 c -0.87,8.7 -8.96,14.7 -22.54,14.7 -15.02,0 -22.54,-7.2 -22.54,-15.6 0,-10.9 13.01,-12.7 28.32,-14.7 19.07,-2.6 54.04,-6.4 54.04,-41.9 0,-28.9 -23.41,-48 -59.82,-48 -36.41,0 -59.25,19.4 -60.11,46" /><path
         id="path92"
         style="fill:#f57b19;fill-opacity:1;fill-rule:nonzero;stroke:none"
         d="m 2028.92,14305.9 c -105.79,0 -191.86,-86 -191.86,-191.8 0,-105.8 86.07,-191.9 191.86,-191.9 105.79,0 191.86,86.1 191.86,191.9 0,105.8 -86.07,191.8 -191.86,191.8 z m 0,-471 c -153.96,0 -279.22,125.2 -279.22,279.2 0,153.9 125.26,279.2 279.22,279.2 153.97,0 279.22,-125.3 279.22,-279.2 0,-154 -125.25,-279.2 -279.22,-279.2" /><path
         id="path94"
         style="fill:#f57b19;fill-opacity:1;fill-rule:nonzero;stroke:none"
         d="m 2971.08,13834.9 c -153.96,0 -279.21,125.2 -279.21,279.2 v 279.2 h 87.35 v -279.2 c 0,-105.8 86.07,-191.9 191.86,-191.9 105.8,0 191.86,86.1 191.86,191.9 v 279.2 h 87.36 v -279.2 c 0,-154 -125.25,-279.2 -279.22,-279.2" /><path
         id="path96"
         style="fill:#f57b19;fill-opacity:1;fill-rule:nonzero;stroke:none"
         d="m 2691.87,14114.1 c 0,-105.8 -86.08,-191.9 -191.87,-191.9 -74.79,0 -139.67,43.1 -171.31,105.7 -9.55,-33.2 -24.44,-64.1 -43.7,-91.7 51.25,-61.9 128.6,-101.3 215.01,-101.3 153.96,0 279.22,125.2 279.22,279.2 h -87.35" /><path
         id="path98"
         style="fill:#ffffff;fill-opacity:1;fill-rule:nonzero;stroke:none"
         d="m 1913.28,7865.3 c 0,37 -25.44,63.9 -63.01,63.9 -37.57,0 -63,-26.9 -63,-63.9 0,-37 25.43,-64.1 63,-64.1 37.57,0 63.01,27.1 63.01,64.1 z m -163.58,0 c 0,56.7 41.62,98.3 100.57,98.3 58.95,0 100.57,-41.6 100.57,-98.3 0,-56.6 -41.62,-98.2 -100.57,-98.2 -58.95,0 -100.57,41.6 -100.57,98.2" /><path
         id="path100"
         style="fill:#ffffff;fill-opacity:1;fill-rule:nonzero;stroke:none"
         d="m 2093.34,7842.2 c 0,25.1 -17.06,43.1 -42.2,43.1 -25.14,0 -41.9,-18 -41.9,-43.1 0,-25.1 16.76,-43.1 41.9,-43.1 25.14,0 42.2,18 42.2,43.1 z m -118.49,-1.1 c 0,46.2 31.21,76.2 76.01,76.2 45.37,0 77.15,-31.2 77.15,-76.5 0,-48.9 -36.41,-73.7 -71.09,-73.7 -20.51,0 -37.56,8.6 -47.68,24.5 v -81.8 h -34.39 v 131.3" /><path
         id="path102"
         style="fill:#ffffff;fill-opacity:1;fill-rule:nonzero;stroke:none"
         d="m 2155.48,7913.6 h 34.39 v -142.8 h -34.39 z m -5.48,41.3 c 0,13.3 9.54,23.1 22.83,23.1 13.3,0 22.83,-9.8 22.83,-23.1 0,-13.3 -9.53,-22.8 -22.83,-22.8 -13.29,0 -22.83,9.5 -22.83,22.8" /><path
         id="path104"
         style="fill:#ffffff;fill-opacity:1;fill-rule:nonzero;stroke:none"
         d="m 2334.09,7857.5 c -5.49,19.1 -21.1,28.6 -39.89,28.6 -19.36,0 -34.38,-9.8 -39.88,-28.6 z m -116.76,-15.3 c 0,43.4 31.79,75.1 76.87,75.1 45.09,0 76.29,-31.7 76.29,-75.1 v -12.1 h -117.03 c 4.62,-20.8 20.51,-31.8 40.74,-31.8 15.32,0 26.59,4.3 33.81,13.6 h 36.71 c -10.7,-27.2 -36.71,-44.8 -70.52,-44.8 -45.08,0 -76.87,31.8 -76.87,75.1" /><path
         id="path106"
         style="fill:#ffffff;fill-opacity:1;fill-rule:nonzero;stroke:none"
         d="m 2393.93,7838.2 v 121.6 h 36.99 v -121.6 c 0,-26 13.87,-36.7 32.09,-36.7 18.19,0 32.07,10.9 32.07,36.7 v 121.6 h 36.99 v -121.6 c 0,-25.8 13.87,-36.7 32.08,-36.7 18.2,0 32.07,10.7 32.07,36.7 v 121.6 h 36.99 v -121.6 c 0,-48.6 -28.6,-71.1 -65.88,-71.1 -23.99,0 -42.78,10.1 -53.76,28.9 -10.97,-18.8 -29.77,-28.9 -53.75,-28.9 -37.28,0 -65.89,22.5 -65.89,71.1" /><path
         id="path108"
         style="fill:#ffffff;fill-opacity:1;fill-rule:nonzero;stroke:none"
         d="m 2775.43,7842.2 c 0,25.1 -16.76,43.1 -41.89,43.1 -25.15,0 -42.2,-18 -42.2,-43.1 0,-25.1 17.05,-43.1 42.2,-43.1 25.13,0 41.89,18 41.89,43.1 z m -118.78,0 c 0,43.4 31.79,75.1 76.89,75.1 45.07,0 76.86,-31.7 76.86,-75.1 0,-43.3 -31.79,-75.1 -76.86,-75.1 -45.1,0 -76.89,31.8 -76.89,75.1" /><path
         id="path110"
         style="fill:#ffffff;fill-opacity:1;fill-rule:nonzero;stroke:none"
         d="m 2832.95,7853.8 c 0,43 25.43,63.5 62.71,63.5 37.28,0 62.42,-20.5 62.42,-64.1 v -0.9 h -34.1 v 1.5 c 0,23.1 -11.56,31.5 -28.32,31.5 -16.75,0 -28.32,-8.4 -28.32,-31.5 v -83 h -34.39 v 83" /><path
         id="path112"
         style="fill:#ffffff;fill-opacity:1;fill-rule:nonzero;stroke:none"
         d="m 2981.5,7976 h 34.39 v -124.8 l 56.65,62.4 h 43.93 l -67.05,-70 69.65,-72.8 h -44.79 l -58.39,64.5 v -64.5 H 2981.5 V 7976" /><path
         id="path114"
         style="fill:#ffffff;fill-opacity:1;fill-rule:nonzero;stroke:none"
         d="m 3130.37,7813 h 34.68 c 0.29,-9.5 8.66,-15.9 25.43,-15.9 17.63,0 25.15,7.2 25.15,15.9 0,11 -12.73,12.4 -28.04,14.5 -21.96,2.9 -54.33,6.6 -54.33,41.6 0,29.2 22.26,48.2 56.65,48.2 34.96,0 56.34,-19.6 57.22,-44.7 h -34.11 c -0.87,8.6 -8.96,14.7 -22.54,14.7 -15.02,0 -22.54,-7.2 -22.54,-15.6 0,-11 13.01,-12.7 28.32,-14.8 19.07,-2.6 54.04,-6.3 54.04,-41.9 0,-28.9 -23.41,-47.9 -59.82,-47.9 -36.41,0 -59.25,19.3 -60.11,45.9" /><path
         id="path116"
         style="fill:#f57b19;fill-opacity:1;fill-rule:nonzero;stroke:none"
         d="m 2500,8131.7 c -153.96,0 -279.22,125.2 -279.22,279.2 h 87.36 c 0,-105.8 86.06,-191.9 191.86,-191.9 105.79,0 191.86,86.1 191.86,191.9 h 87.36 c 0,-154 -125.26,-279.2 -279.22,-279.2" /><path
         id="path118"
         style="fill:#f57b19;fill-opacity:1;fill-rule:nonzero;stroke:none"
         d="m 2971.07,8131.7 c -153.95,0 -279.21,125.2 -279.21,279.2 v 279.2 h 87.36 v -279.2 c 0,-105.8 86.06,-191.9 191.85,-191.9 105.8,0 191.87,86.1 191.87,191.9 v 279.2 h 87.36 v -279.2 c 0,-154 -125.26,-279.2 -279.23,-279.2" /><path
         id="path120"
         style="fill:#ffffff;fill-opacity:1;fill-rule:nonzero;stroke:none"
         d="m 2028.92,8602.7 c -105.79,0 -191.86,-86 -191.86,-191.8 0,-105.8 86.07,-191.9 191.86,-191.9 105.79,0 191.86,86.1 191.86,191.9 0,105.8 -86.07,191.8 -191.86,191.8 z m 0,-471 c -153.96,0 -279.22,125.2 -279.22,279.2 0,153.9 125.26,279.2 279.22,279.2 153.96,0 279.22,-125.3 279.22,-279.2 0,-154 -125.26,-279.2 -279.22,-279.2" /><path
         id="path122"
         style="fill:#f57b19;fill-opacity:1;fill-rule:nonzero;stroke:none"
         d="m 1913.28,2165.3 c 0,37 -25.44,63.9 -63.01,63.9 -37.57,0 -63,-26.9 -63,-63.9 0,-37 25.43,-64.1 63,-64.1 37.57,0 63.01,27.1 63.01,64.1 z m -163.58,0 c 0,56.7 41.62,98.3 100.57,98.3 58.95,0 100.57,-41.6 100.57,-98.3 0,-56.6 -41.62,-98.2 -100.57,-98.2 -58.95,0 -100.57,41.6 -100.57,98.2" /><path
         id="path124"
         style="fill:#f57b19;fill-opacity:1;fill-rule:nonzero;stroke:none"
         d="m 2093.34,2142.2 c 0,25.1 -17.06,43.1 -42.2,43.1 -25.14,0 -41.9,-18 -41.9,-43.1 0,-25.1 16.76,-43.1 41.9,-43.1 25.14,0 42.2,18 42.2,43.1 z m -118.49,-1.1 c 0,46.2 31.21,76.2 76.01,76.2 45.37,0 77.15,-31.2 77.15,-76.5 0,-48.9 -36.41,-73.7 -71.09,-73.7 -20.51,0 -37.56,8.6 -47.68,24.5 v -81.8 h -34.39 v 131.3" /><path
         id="path126"
         style="fill:#f57b19;fill-opacity:1;fill-rule:nonzero;stroke:none"
         d="m 2155.48,2213.6 h 34.39 v -142.8 h -34.39 z m -5.48,41.3 c 0,13.3 9.54,23.1 22.83,23.1 13.3,0 22.83,-9.8 22.83,-23.1 0,-13.3 -9.53,-22.8 -22.83,-22.8 -13.29,0 -22.83,9.5 -22.83,22.8" /><path
         id="path128"
         style="fill:#f57b19;fill-opacity:1;fill-rule:nonzero;stroke:none"
         d="m 2334.09,2157.5 c -5.49,19.1 -21.1,28.6 -39.89,28.6 -19.36,0 -34.38,-9.8 -39.88,-28.6 z m -116.76,-15.3 c 0,43.4 31.79,75.1 76.87,75.1 45.09,0 76.29,-31.7 76.29,-75.1 v -12.1 h -117.03 c 4.62,-20.8 20.51,-31.8 40.74,-31.8 15.32,0 26.59,4.3 33.81,13.6 h 36.71 c -10.7,-27.2 -36.71,-44.8 -70.52,-44.8 -45.08,0 -76.87,31.8 -76.87,75.1" /><path
         id="path130"
         style="fill:#f57b19;fill-opacity:1;fill-rule:nonzero;stroke:none"
         d="m 2393.93,2138.2 v 121.6 h 36.99 v -121.6 c 0,-26 13.87,-36.7 32.09,-36.7 18.19,0 32.07,10.9 32.07,36.7 v 121.6 h 36.99 v -121.6 c 0,-25.8 13.87,-36.7 32.08,-36.7 18.2,0 32.07,10.7 32.07,36.7 v 121.6 h 36.99 v -121.6 c 0,-48.6 -28.6,-71.1 -65.88,-71.1 -23.99,0 -42.78,10.1 -53.76,28.9 -10.97,-18.8 -29.77,-28.9 -53.75,-28.9 -37.28,0 -65.89,22.5 -65.89,71.1" /><path
         id="path132"
         style="fill:#f57b19;fill-opacity:1;fill-rule:nonzero;stroke:none"
         d="m 2775.43,2142.2 c 0,25.1 -16.76,43.1 -41.89,43.1 -25.15,0 -42.2,-18 -42.2,-43.1 0,-25.1 17.05,-43.1 42.2,-43.1 25.13,0 41.89,18 41.89,43.1 z m -118.78,0 c 0,43.4 31.79,75.1 76.89,75.1 45.07,0 76.86,-31.7 76.86,-75.1 0,-43.3 -31.79,-75.1 -76.86,-75.1 -45.1,0 -76.89,31.8 -76.89,75.1" /><path
         id="path134"
         style="fill:#f57b19;fill-opacity:1;fill-rule:nonzero;stroke:none"
         d="m 2832.95,2153.8 c 0,43 25.43,63.5 62.71,63.5 37.28,0 62.42,-20.5 62.42,-64.1 v -0.9 h -34.1 v 1.5 c 0,23.1 -11.56,31.5 -28.32,31.5 -16.75,0 -28.32,-8.4 -28.32,-31.5 v -83 h -34.39 v 83" /><path
         id="path136"
         style="fill:#f57b19;fill-opacity:1;fill-rule:nonzero;stroke:none"
         d="m 2981.5,2276 h 34.39 v -124.8 l 56.65,62.4 h 43.93 l -67.05,-70 69.65,-72.8 h -44.79 l -58.39,64.5 v -64.5 H 2981.5 V 2276" /><path
         id="path138"
         style="fill:#f57b19;fill-opacity:1;fill-rule:nonzero;stroke:none"
         d="m 3130.37,2113 h 34.68 c 0.29,-9.5 8.66,-15.9 25.43,-15.9 17.63,0 25.15,7.2 25.15,15.9 0,11 -12.73,12.4 -28.04,14.5 -21.96,2.9 -54.33,6.6 -54.33,41.6 0,29.2 22.26,48.2 56.65,48.2 34.96,0 56.34,-19.6 57.22,-44.7 h -34.11 c -0.87,8.6 -8.96,14.7 -22.54,14.7 -15.02,0 -22.54,-7.2 -22.54,-15.6 0,-11 13.01,-12.7 28.32,-14.8 19.07,-2.6 54.04,-6.3 54.04,-41.9 0,-28.9 -23.41,-47.9 -59.82,-47.9 -36.41,0 -59.25,19.3 -60.11,45.9" /><path
         id="path140"
         style="fill:#f57b19;fill-opacity:1;fill-rule:nonzero;stroke:none"
         d="m 2500,2431.7 c -153.96,0 -279.22,125.2 -279.22,279.2 h 87.36 c 0,-105.8 86.06,-191.9 191.86,-191.9 105.79,0 191.86,86.1 191.86,191.9 h 87.36 c 0,-154 -125.26,-279.2 -279.22,-279.2" /><path
         id="path142"
         style="fill:#f57b19;fill-opacity:1;fill-rule:nonzero;stroke:none"
         d="m 2971.07,2431.7 c -153.95,0 -279.21,125.2 -279.21,279.2 v 279.2 h 87.36 v -279.2 c 0,-105.8 86.06,-191.9 191.85,-191.9 105.8,0 191.87,86.1 191.87,191.9 v 279.2 h 87.36 v -279.2 c 0,-154 -125.26,-279.2 -279.23,-279.2" /><path
         id="path144"
         style="fill:#ffffff;fill-opacity:1;fill-rule:nonzero;stroke:none"
         d="m 2028.92,2902.7 c -105.79,0 -191.86,-86 -191.86,-191.8 0,-105.8 86.07,-191.9 191.86,-191.9 105.79,0 191.86,86.1 191.86,191.9 0,105.8 -86.07,191.8 -191.86,191.8 z m 0,-471 c -153.96,0 -279.22,125.2 -279.22,279.2 0,153.9 125.26,279.2 279.22,279.2 153.96,0 279.22,-125.3 279.22,-279.2 0,-154 -125.26,-279.2 -279.22,-279.2" /></g></g></svg>