<svg width="400" height="275" xmlns="http://www.w3.org/2000/svg">
 <g>
  <title>Layer 1</title>
  <g fill="#f57b19" id="svg_1" stroke="null">
   <path d="m53.39901,226.21043c0,-9.29696 -6.39272,-16.05718 -15.83291,-16.05718c-9.44208,0 -15.83103,6.76023 -15.83103,16.05718s6.38895,16.13257 15.83103,16.13257c9.44019,0 15.83291,-6.83561 15.83291,-16.13257zm-41.10413,0c0,-14.22342 10.4579,-24.67567 25.27122,-24.67567s25.27122,10.45225 25.27122,24.67567c0,14.24792 -10.45979,24.70206 -25.2731,24.70206s-25.27122,-10.45413 -25.27122,-24.70206m86.3526,5.80471c0,-6.30791 -4.28757,-10.80468 -10.6049,-10.80468s-10.52763,4.49677 -10.52763,10.80468c0,6.33241 4.2103,10.83106 10.52763,10.83106c6.31733,0 10.6049,-4.49865 10.6049,-10.83106zm-29.77552,0.30154c0,-11.60942 7.8439,-19.1725 19.10089,-19.1725c11.40211,0 19.38735,7.84013 19.38735,19.24789c0,12.26339 -9.14996,18.52042 -17.86456,18.52042c-5.15451,0 -9.43831,-2.18619 -11.98069,-6.18164l0,20.55395l-8.64299,0l0,-32.96811m45.38981,-18.21887l8.64299,0l0,35.85916l-8.64299,0l0,-35.85916zm-1.37579,-10.40325c0,-3.34148 2.39727,-5.80471 5.73686,-5.80471c3.34148,0 5.73686,2.46323 5.73686,5.80471c0,3.34336 -2.39539,5.75571 -5.73686,5.75571c-3.33959,0 -5.73686,-2.41235 -5.73686,-5.75571m46.25864,24.4759c-1.37956,-4.80019 -5.30151,-7.18616 -10.02443,-7.18616c-4.86427,0 -8.63922,2.46135 -10.02066,7.18616l20.0451,0l-0.00001,0zm-29.34017,3.84468c0,-10.88006 7.98901,-18.87096 19.31762,-18.87096s19.16873,7.9909 19.16873,18.87096l0,3.06632l-29.40802,0c1.16094,5.22612 5.15451,7.9909 10.2374,7.9909c3.85033,0 6.68295,-1.10629 8.49598,-3.41875l9.22534,0c-2.68939,6.81111 -9.22534,11.25888 -17.72133,11.25888c-11.32672,0 -19.31574,-7.9909 -19.31574,-18.89735m44.37588,1.0309l0,-30.58215l9.29696,0l0,30.58215c0,6.53218 3.48471,9.22157 8.06252,9.22157c4.57215,0 8.05875,-2.76478 8.05875,-9.22157l0,-30.58215l9.29507,0l0,30.58215c0,6.4568 3.4866,9.22157 8.06252,9.22157c4.57215,0 8.05875,-2.68939 8.05875,-9.22157l0,-30.58215l9.29507,0l0,30.58215c0,12.18612 -7.18804,17.86644 -16.55473,17.86644c-6.02898,0 -10.75002,-2.53862 -13.50914,-7.26343c-2.75724,4.72481 -7.48204,7.26343 -13.50726,7.26343c-9.36669,0 -16.55662,-5.68032 -16.55662,-17.86644m95.8644,-1.0309c0,-6.30791 -4.2103,-10.80468 -10.52575,-10.80468c-6.31922,0 -10.6049,4.49677 -10.6049,10.80468c0,6.33241 4.28569,10.83106 10.6049,10.83106c6.31356,0 10.52575,-4.49865 10.52575,-10.83106zm-29.84714,0c0,-10.88006 7.98901,-18.87096 19.32139,-18.87096c11.32672,0 19.31385,7.9909 19.31385,18.87096c0,10.90645 -7.98901,18.89735 -19.31385,18.89735c-11.33238,0 -19.32139,-7.9909 -19.32139,-18.89735m44.30237,-2.88916c0,-10.83106 6.38895,-15.9818 15.75753,-15.9818c9.36669,0 15.68591,5.15074 15.68591,16.13257l0,0.19977l-8.56949,0l0,-0.35054c0,-5.80471 -2.90424,-7.91551 -7.11642,-7.91551c-4.20841,0 -7.11642,2.1108 -7.11642,7.91551l0,20.83099l-8.6411,0l0,-20.83099m37.3273,-30.73292l8.64299,0l0,31.38501l14.23473,-15.68025l11.03837,0l-16.84874,17.5649l17.50271,18.29426l-11.25511,0l-14.67197,-16.18346l0,16.18346l-8.64299,0l0,-51.56392m37.41022,40.95901l8.7146,0c0.07162,2.41235 2.17488,3.99545 6.38895,3.99545c4.4308,0 6.3211,-1.80926 6.3211,-3.99545c0,-2.76289 -3.20013,-3.11532 -7.04669,-3.61852c-5.51824,-0.72747 -13.65238,-1.68299 -13.65238,-10.45225c0,-7.33881 5.59363,-12.13712 14.23473,-12.13712c8.78622,0 14.15746,4.94908 14.37985,11.25699l-8.57137,0c-0.21862,-2.18619 -2.25215,-3.69391 -5.66525,-3.69391c-3.77306,0 -5.66336,1.80926 -5.66336,3.92006c0,2.73839 3.26986,3.19071 7.11642,3.69391c4.79265,0.65397 13.57887,1.6076 13.57887,10.52952c0,7.26154 -5.88198,12.06173 -15.03194,12.06173c-9.14807,0 -14.8887,-4.87558 -15.10355,-11.56042m-276.77911,-204.4954c-26.58482,0 -48.21301,21.60935 -48.21301,48.19605c0,26.5867 21.6282,48.22244 48.21301,48.22244c26.58293,0 48.21113,-21.63574 48.21113,-48.22244s-21.6282,-48.19605 -48.21113,-48.19605zm0,118.35577c-38.68801,0 -70.16537,-31.46228 -70.16537,-70.15972c0,-38.67294 31.47736,-70.15972 70.16537,-70.15972c38.6899,0 70.16349,31.48678 70.16349,70.15972c0,38.69744 -31.47359,70.15972 -70.16537,70.15972m236.753,0c-38.68801,0 -70.1616,-31.46228 -70.1616,-70.15972l0,-70.15972l21.95047,0l0,70.15972c0,26.5867 21.6282,48.22244 48.21113,48.22244c26.5867,0 48.21113,-21.63574 48.21113,-48.22244l0,-70.15972l21.95236,0l0,70.15972c0,38.69744 -31.47359,70.15972 -70.16349,70.15972" id="svg_2" stroke="null"/>
   <path d="m249.04789,83.05272c0,26.5867 -21.63008,48.22244 -48.2149,48.22244c-18.79369,0 -35.09588,-10.83106 -43.0472,-26.5622a77.86792,77.86792 0 0 1 -10.98183,23.04357c12.87967,15.55398 32.31603,25.45591 54.02903,25.45591c38.68801,0 70.16537,-31.46228 70.16537,-70.15972l-21.95047,0" id="svg_3" stroke="null"/>
  </g>
 </g>

</svg>